<svg width="107" height="65" viewBox="0 0 107 65" fill="none" xmlns="http://www.w3.org/2000/svg">
<mask id="mask0_2_5533" style="mask-type:alpha" maskUnits="userSpaceOnUse" x="0" y="0" width="107" height="65">
<path d="M0 0H107V65H0V0Z" fill="#C4C4C4"/>
</mask>
<g mask="url(#mask0_2_5533)">
<path opacity="0.1" d="M41.8 70.8V39.2C41.8 25.9 31.3 19 20.9 19C10.4 19 2.98023e-08 25.9 2.98023e-08 39.2V70.8C2.98023e-08 84.2 10.4 91 20.9 91C31.3 91 41.8 84.2 41.8 70.8ZM28.4 38.4V71.3C28.4 76.4 24.7 79 20.9 79C17.2 79 13.4 76.4 13.4 71.3V38.4C13.4 33.3 17.1 30.8 20.9 30.8C24.6 30.8 28.4 33.3 28.4 38.4ZM62.543 56.3C62.143 56.9 62.643 57.5 63.443 57.5H72.843C78.543 58 82.243 62.3 82.243 68.4C82.243 73.2 79.143 78.1 73.143 78.1C68.943 78.1 64.843 75.1 64.843 70.3C64.843 69.9 64.443 69.5 63.943 69.5H52.643C52.043 69.5 51.643 69.9 51.643 70.3C51.643 83 61.643 91 73.143 91C84.643 91 95.743 84.6 95.743 69.2C95.743 58 90.543 49.9 81.243 47.2L96.043 21.2C96.443 20.6 95.943 20 95.143 20H54.943C54.343 20 53.943 20.4 53.943 20.8V31.8C53.943 32.2 54.343 32.6 54.943 32.6H76.443L62.543 56.3Z" fill="#7A1B1B"/>
</g>
</svg>
