<svg width="107" height="65" viewBox="0 0 107 65" fill="none" xmlns="http://www.w3.org/2000/svg">
<mask id="mask0_2_5530" style="mask-type:alpha" maskUnits="userSpaceOnUse" x="0" y="0" width="107" height="65">
<path d="M0 0H107V65H0V0Z" fill="#C4C4C4"/>
</mask>
<g mask="url(#mask0_2_5530)">
<path opacity="0.1" d="M41.8 70.8C41.8 77.1333 39.7 82.1 35.5 85.7C31.3667 89.2333 26.5 91 20.9 91C15.2333 91 10.3333 89.2333 6.2 85.7C2.06667 82.1 2.98023e-08 77.1333 2.98023e-08 70.8V39.2C2.98023e-08 32.9333 2.06667 28 6.2 24.4C10.3333 20.8 15.2333 19 20.9 19C26.5 19 31.3667 20.8 35.5 24.4C39.7 28 41.8 32.9333 41.8 39.2V70.8ZM28.4 38.4C28.4 36 27.6333 34.1333 26.1 32.8C24.6333 31.4667 22.9 30.8 20.9 30.8C18.8333 30.8 17.0667 31.4667 15.6 32.8C14.1333 34.1333 13.4 36 13.4 38.4V71.3C13.4 73.7 14.1333 75.6 15.6 77C17.1333 78.3333 18.9 79 20.9 79C22.9667 79 24.7333 78.3333 26.2 77C27.6667 75.6 28.4 73.7 28.4 71.3V38.4ZM94.243 77.8V89.2C94.243 89.7333 93.9096 90 93.243 90H53.343C52.6763 90 52.343 89.7333 52.343 89.2V78.7L77.043 44.6C78.643 42.4667 79.443 40.3667 79.443 38.3C79.443 36.5 78.843 35.0333 77.643 33.9C76.443 32.7 74.9763 32.1 73.243 32.1C71.243 32.1 69.4763 32.7333 67.943 34C66.4763 35.2667 65.743 37.1333 65.743 39.6C65.743 40.0667 65.4096 40.3 64.743 40.3H54.043C53.3763 40.3 53.043 40.0667 53.043 39.6C53.043 33.5333 54.743 28.6 58.143 24.8C61.543 21 66.5763 19.1 73.243 19.1C78.5763 19.1 83.243 20.8667 87.243 24.4C91.3096 27.9333 93.343 32.3333 93.343 37.6C93.343 42.0667 91.6763 46.6 88.343 51.2L68.843 77H93.243C93.9096 77 94.243 77.2667 94.243 77.8Z" fill="#7A1B1B"/>
</g>
</svg>
