<svg width="85" height="65" viewBox="0 0 85 65" fill="none" xmlns="http://www.w3.org/2000/svg">
<mask id="mask0_2_5540" style="mask-type:alpha" maskUnits="userSpaceOnUse" x="0" y="0" width="85" height="65">
<rect width="85" height="65" fill="#C4C4C4"/>
</mask>
<g mask="url(#mask0_2_5540)">
<path opacity="0.1" d="M41.8 70.8V39.2C41.8 25.9 31.3 19 20.9 19C10.4 19 2.98023e-08 25.9 2.98023e-08 39.2V70.8C2.98023e-08 84.2 10.4 91 20.9 91C31.3 91 41.8 84.2 41.8 70.8ZM28.4 38.4V71.3C28.4 76.4 24.7 79 20.9 79C17.2 79 13.4 76.4 13.4 71.3V38.4C13.4 33.3 17.1 30.8 20.9 30.8C24.6 30.8 28.4 33.3 28.4 38.4ZM75.543 20.8C75.543 20.4 75.243 20 74.643 20H64.643L48.743 28.6C48.243 28.8 48.143 29.2 48.343 29.6L52.143 37.8C52.343 38.2 52.843 38.4 53.343 38.3C56.243 37.2 59.143 36 62.243 35V89.2C62.243 89.6 62.543 90 63.143 90H74.643C75.243 90 75.543 89.6 75.543 89.2V20.8Z" fill="#7A1B1B"/>
</g>
</svg>
