<svg width="107" height="65" viewBox="0 0 107 65" fill="none" xmlns="http://www.w3.org/2000/svg">
<mask id="mask0_2_5536" style="mask-type:alpha" maskUnits="userSpaceOnUse" x="0" y="0" width="107" height="65">
<path d="M0 0H107V65H0V0Z" fill="#C4C4C4"/>
</mask>
<g mask="url(#mask0_2_5536)">
<path opacity="0.1" d="M41.8 70.8C41.8 77.1333 39.7 82.1 35.5 85.7C31.3667 89.2333 26.5 91 20.9 91C15.2333 91 10.3333 89.2333 6.2 85.7C2.06667 82.1 2.98023e-08 77.1333 2.98023e-08 70.8V39.2C2.98023e-08 32.9333 2.06667 28 6.2 24.4C10.3333 20.8 15.2333 19 20.9 19C26.5 19 31.3667 20.8 35.5 24.4C39.7 28 41.8 32.9333 41.8 39.2V70.8ZM28.4 38.4C28.4 36 27.6333 34.1333 26.1 32.8C24.6333 31.4667 22.9 30.8 20.9 30.8C18.8333 30.8 17.0667 31.4667 15.6 32.8C14.1333 34.1333 13.4 36 13.4 38.4V71.3C13.4 73.7 14.1333 75.6 15.6 77C17.1333 78.3333 18.9 79 20.9 79C22.9667 79 24.7333 78.3333 26.2 77C27.6667 75.6 28.4 73.7 28.4 71.3V38.4ZM93.543 20.8V89.2C93.543 89.7333 93.2096 90 92.543 90H81.143C80.543 90 80.243 89.7333 80.243 89.2V69.3H52.943C52.2763 69.3 51.943 69.0333 51.943 68.5V57.5L80.443 20.3C80.643 20.1 80.8763 20 81.143 20H92.543C93.2096 20 93.543 20.2667 93.543 20.8ZM80.343 38.7L65.243 57.7H80.343V38.7Z" fill="#7A1B1B"/>
</g>
</svg>
