<svg width="78" height="93" viewBox="32 20 78 93" fill="none" xmlns="http://www.w3.org/2000/svg">
<g opacity="0.1">
<path d="M70.9412 62.7982C70.9412 65.4482 60.6701 67.5965 48 67.5965C35.33 67.5965 25.0588 65.4482 25.0588 62.7982C25.0588 60.1482 35.33 58 48 58C60.6701 58 70.9412 60.1482 70.9412 62.7982Z" fill="#31353A"/>
<path d="M48 69.4815L32.4328 66.3112H63.5672L48 69.4815Z" fill="#31353A"/>
</g>
<g opacity="0.3" filter="url(#filter0_d_1_153)">
<ellipse cx="48.1765" cy="45.9259" rx="22.9412" ry="22.963" fill="#7A1B1B"/>
</g>
<circle cx="48" cy="46" r="18" fill="#C79791"/>
<g clip-path="url(#clip0_1_153)">
<path d="M54.9231 45.4577H53.8175L53.8759 44.2318C53.8825 44.0928 53.8319 43.9572 53.736 43.8566C53.64 43.7559 53.5069 43.699 53.3679 43.699H42.1787C42.0396 43.699 41.9065 43.7559 41.8106 43.8566C41.7146 43.9573 41.664 44.0928 41.6706 44.2318L41.8965 48.9691C41.9522 50.1398 42.6693 51.1249 43.6768 51.5724H41.5086C41.2278 51.5724 41 51.8002 41 52.081C41 52.3618 41.2278 52.5896 41.5086 52.5896H54.1096C54.3905 52.5896 54.6183 52.3618 54.6183 52.081C54.6183 51.8002 54.3905 51.5724 54.1096 51.5724H51.8698C52.6865 51.2095 53.3118 50.4935 53.5491 49.6115H54.9231C56.0683 49.6115 57 48.6798 57 47.5346C57 46.3894 56.0683 45.4577 54.9231 45.4577ZM50.6488 50.8137H44.8979C43.8352 50.8137 42.9631 49.9821 42.9125 48.9206L42.7121 44.7161H52.8344L52.6341 48.9206C52.5835 49.9821 51.7115 50.8137 50.6488 50.8137ZM54.9231 48.5943H53.6681L53.7691 46.4739C53.7767 46.4742 53.7841 46.475 53.7917 46.475H54.9231C55.5074 46.475 55.9827 46.9503 55.9827 47.5346C55.9827 48.119 55.5074 48.5943 54.9231 48.5943Z" fill="white"/>
<path d="M46.2787 42.865C46.3599 42.913 46.449 42.9359 46.537 42.9359C46.711 42.9359 46.8804 42.8465 46.9754 42.686C47.1184 42.4441 47.0382 42.1322 46.7964 41.9893C46.5136 41.8221 46.3181 41.5137 46.2601 41.1433C46.1997 40.7576 46.3005 40.3734 46.5295 40.1158C46.5315 40.1135 46.5336 40.1112 46.5355 40.1088C46.5909 40.0442 46.6462 39.9807 46.7011 39.9178C47.1715 39.3774 47.6581 38.8189 47.7978 38.0059C47.8455 37.729 47.6596 37.466 47.3828 37.4184C47.1059 37.3709 46.8429 37.5566 46.7953 37.8335C46.7039 38.3655 46.3471 38.7752 45.934 39.2496C45.8783 39.3135 45.8222 39.378 45.766 39.4435C45.3396 39.9256 45.1486 40.6194 45.2551 41.3004C45.3601 41.9723 45.7332 42.5425 46.2787 42.865Z" fill="white"/>
<path d="M47.8572 41.7163C48.0251 42.1487 48.3247 42.5448 48.7008 42.8315C48.7929 42.9017 48.9012 42.9357 49.0088 42.9357C49.1621 42.9357 49.3137 42.8667 49.4137 42.7354C49.584 42.512 49.5409 42.1928 49.3175 42.0225C49.0916 41.8503 48.905 41.6046 48.8055 41.3482C48.6072 40.8376 48.795 40.3288 49.4337 39.6468C49.8865 39.1633 50.1759 38.5938 50.2706 37.9997C50.3147 37.7223 50.1258 37.4616 49.8483 37.4173C49.5709 37.3731 49.3102 37.5621 49.2659 37.8396C49.2024 38.2379 49.0091 38.612 48.6912 38.9515C48.3576 39.3076 47.3427 40.3914 47.8572 41.7163Z" fill="white"/>
</g>
<defs>
<filter id="filter0_d_1_153" x="21.2353" y="22.9629" width="53.8823" height="53.9259" filterUnits="userSpaceOnUse" color-interpolation-filters="sRGB">
<feFlood flood-opacity="0" result="BackgroundImageFix"/>
<feColorMatrix in="SourceAlpha" type="matrix" values="0 0 0 0 0 0 0 0 0 0 0 0 0 0 0 0 0 0 127 0" result="hardAlpha"/>
<feOffset dy="4"/>
<feGaussianBlur stdDeviation="2"/>
<feColorMatrix type="matrix" values="0 0 0 0 0 0 0 0 0 0 0 0 0 0 0 0 0 0 0.25 0"/>
<feBlend mode="normal" in2="BackgroundImageFix" result="effect1_dropShadow_1_153"/>
<feBlend mode="normal" in="SourceGraphic" in2="effect1_dropShadow_1_153" result="shape"/>
</filter>
<clipPath id="clip0_1_153">
<rect width="16" height="16" fill="white" transform="translate(41 37)"/>
</clipPath>
</defs>
</svg>
