<svg width="78" height="93" viewBox="32 20 78 93" fill="none" xmlns="http://www.w3.org/2000/svg">
<g opacity="0.1">
<path d="M70.9412 62.7982C70.9412 65.4482 60.6701 67.5965 48 67.5965C35.33 67.5965 25.0588 65.4482 25.0588 62.7982C25.0588 60.1482 35.33 58 48 58C60.6701 58 70.9412 60.1482 70.9412 62.7982Z" fill="#31353A"/>
<path d="M48 69.4815L32.4328 66.3112H63.5672L48 69.4815Z" fill="#31353A"/>
</g>
<g opacity="0.3" filter="url(#filter0_d_1_158)">
<ellipse cx="48.1765" cy="45.9259" rx="22.9412" ry="22.963" fill="#7A1B1B"/>
</g>
<circle cx="48" cy="46" r="18" fill="#C79791"/>
<g clip-path="url(#clip0_1_158)">
<path d="M55.6113 43.5393L48.1852 41.0078C48.065 40.9668 47.935 40.9668 47.8148 41.0078L40.3887 43.5393C40.1563 43.6186 39.9999 43.8371 40 44.0827C40.0001 44.3284 40.1565 44.5468 40.3891 44.6259L43.2759 45.6079V48.5996C43.2759 48.7427 43.3292 48.8805 43.4256 48.9862C44.6049 50.2803 46.2849 51.0226 48.0347 51.0226C49.7672 51.0226 51.377 50.3287 52.5672 49.0688C52.6679 48.9623 52.7239 48.8212 52.7239 48.6747V45.6123L53.9158 45.2051V46.6481C53.7815 46.7532 53.695 46.9162 53.695 47.0998V48.4998C53.695 48.8167 53.952 49.0737 54.2689 49.0737C54.5859 49.0737 54.8429 48.8167 54.8429 48.4998V47.0998C54.8429 46.9162 54.7563 46.7531 54.6221 46.6481V44.9637L55.6115 44.6257C55.8438 44.5464 55.9999 44.3279 55.9998 44.0824C55.9999 43.8369 55.8437 43.6185 55.6113 43.5393ZM51.5762 48.4395C50.6226 49.3667 49.3737 49.8746 48.0347 49.8746C46.6796 49.8746 45.3758 49.329 44.4238 48.3704V45.9983L47.8317 47.1575C47.8917 47.1779 47.9541 47.188 48.0166 47.188C48.0792 47.188 48.142 47.1778 48.2022 47.1572L51.5762 46.0044V48.4395H51.5762ZM48.0161 46.0078L42.3543 44.0819L48 42.1573L53.6491 44.0832L48.0161 46.0078Z" fill="white"/>
</g>
<defs>
<filter id="filter0_d_1_158" x="21.2354" y="22.9629" width="53.8823" height="53.9259" filterUnits="userSpaceOnUse" color-interpolation-filters="sRGB">
<feFlood flood-opacity="0" result="BackgroundImageFix"/>
<feColorMatrix in="SourceAlpha" type="matrix" values="0 0 0 0 0 0 0 0 0 0 0 0 0 0 0 0 0 0 127 0" result="hardAlpha"/>
<feOffset dy="4"/>
<feGaussianBlur stdDeviation="2"/>
<feColorMatrix type="matrix" values="0 0 0 0 0 0 0 0 0 0 0 0 0 0 0 0 0 0 0.25 0"/>
<feBlend mode="normal" in2="BackgroundImageFix" result="effect1_dropShadow_1_158"/>
<feBlend mode="normal" in="SourceGraphic" in2="effect1_dropShadow_1_158" result="shape"/>
</filter>
<clipPath id="clip0_1_158">
<rect width="16" height="16" fill="white" transform="translate(40 38)"/>
</clipPath>
</defs>
</svg>
