<svg width="78" height="93" viewBox="32 20 78 93" fill="none" xmlns="http://www.w3.org/2000/svg">
<g opacity="0.1">
<path d="M70.9412 62.7982C70.9412 65.4482 60.6701 67.5965 48 67.5965C35.33 67.5965 25.0588 65.4482 25.0588 62.7982C25.0588 60.1482 35.33 58 48 58C60.6701 58 70.9412 60.1482 70.9412 62.7982Z" fill="#31353A"/>
<path d="M48 69.4815L32.4328 66.3112H63.5672L48 69.4815Z" fill="#31353A"/>
</g>
<g opacity="0.3" filter="url(#filter0_d_1_156)">
<ellipse cx="48.1765" cy="45.9259" rx="22.9412" ry="22.963" fill="#7A1B1B"/>
</g>
<circle cx="48" cy="46" r="18" fill="#C79791"/>
<g clip-path="url(#clip0_1_156)">
<path d="M48.0007 38C43.6681 38 40.1425 41.5255 40.1425 45.858C40.1425 49.5981 42.7706 52.7346 46.2772 53.5235C45.8722 53.1324 45.5881 52.6188 45.4842 52.0419C43.0454 51.0462 41.322 48.6507 41.322 45.8575C41.322 43.1584 42.9322 40.8298 45.2418 39.7785C45.1502 40.2998 45.5413 40.9003 45.9865 41.4391C46.3894 41.9264 46.2165 42.2944 45.9057 42.5517C45.8079 42.6324 45.7708 42.7657 45.813 42.8856C45.8552 43.005 45.9674 43.0858 46.094 43.0879C50.0962 43.1476 51.0688 40.872 51.2906 40.0497C53.3126 41.1988 54.6784 43.3709 54.6784 45.8575C54.6784 48.502 53.133 50.7925 50.898 51.8737C50.8285 52.4593 50.5743 52.9873 50.1966 53.4005C53.4634 52.4474 55.8579 49.4278 55.8579 45.8575C55.8589 41.5255 52.3333 38 48.0007 38Z" fill="white"/>
<path d="M45.9056 46.5523C46.3942 46.5523 46.7903 46.1562 46.7903 45.6677C46.7903 45.1791 46.3942 44.7831 45.9056 44.7831C45.4171 44.7831 45.021 45.1791 45.021 45.6677C45.021 46.1562 45.4171 46.5523 45.9056 46.5523Z" fill="white"/>
<path d="M50.0339 46.5523C50.5225 46.5523 50.9185 46.1562 50.9185 45.6677C50.9185 45.1791 50.5225 44.7831 50.0339 44.7831C49.5454 44.7831 49.1493 45.1791 49.1493 45.6677C49.1493 46.1562 49.5454 46.5523 50.0339 46.5523Z" fill="white"/>
<path d="M45.5706 50.7165C45.7744 50.0835 46.2031 49.5524 46.7604 49.2143C46.8047 48.4908 47.3975 47.917 48.1242 47.917C48.8282 47.917 49.4076 48.4543 49.4828 49.1459C50.1008 49.4809 50.5743 50.0475 50.7904 50.7278C51.1445 50.3588 51.3529 49.9111 51.3529 49.4289C51.3529 48.1661 49.9351 47.1431 48.187 47.1431C46.4383 47.1431 45.0205 48.1661 45.0205 49.4289C45.0205 49.9065 45.2238 50.3485 45.5706 50.7165Z" fill="white"/>
<path d="M48.4834 50.6334C48.3871 50.6015 48.2847 50.5835 48.1787 50.5835C48.0629 50.5835 47.9528 50.6046 47.8499 50.6416C47.9415 50.6658 47.9255 50.6699 47.8303 50.6489C47.467 50.7893 47.2076 51.1413 47.2076 51.5546C47.2076 51.5705 47.2092 51.5865 47.2102 51.6029C47.518 51.6755 47.8453 51.7146 48.1864 51.7146C48.5209 51.7146 48.8431 51.6765 49.1462 51.607C49.1467 51.5901 49.1488 51.5731 49.1488 51.5546C49.1493 51.1254 48.8693 50.7615 48.4834 50.6334Z" fill="white"/>
<path d="M48.15 48.3226C47.6565 48.3226 47.2345 48.6262 47.0585 49.0565C47.4007 48.9016 47.7795 48.8136 48.1793 48.8136C48.5509 48.8136 48.9049 48.8892 49.2281 49.0235C49.0439 48.6108 48.6311 48.3226 48.15 48.3226Z" fill="white"/>
<path d="M48.1792 49.1093C46.8309 49.1093 45.7338 50.2064 45.7338 51.5546C45.7338 52.9024 46.8309 54 48.1792 54C49.527 54 50.6242 52.9029 50.6242 51.5546C50.6242 50.2059 49.527 49.1093 48.1792 49.1093ZM48.1792 52.82C47.4809 52.82 46.9133 52.2519 46.9133 51.5546C46.9133 50.8574 47.4814 50.2887 48.1792 50.2887C48.8765 50.2887 49.4447 50.8568 49.4447 51.5546C49.4447 52.2524 48.8771 52.82 48.1792 52.82Z" fill="white"/>
</g>
<defs>
<filter id="filter0_d_1_156" x="21.2354" y="22.9629" width="53.8823" height="53.9259" filterUnits="userSpaceOnUse" color-interpolation-filters="sRGB">
<feFlood flood-opacity="0" result="BackgroundImageFix"/>
<feColorMatrix in="SourceAlpha" type="matrix" values="0 0 0 0 0 0 0 0 0 0 0 0 0 0 0 0 0 0 127 0" result="hardAlpha"/>
<feOffset dy="4"/>
<feGaussianBlur stdDeviation="2"/>
<feColorMatrix type="matrix" values="0 0 0 0 0 0 0 0 0 0 0 0 0 0 0 0 0 0 0.25 0"/>
<feBlend mode="normal" in2="BackgroundImageFix" result="effect1_dropShadow_1_156"/>
<feBlend mode="normal" in="SourceGraphic" in2="effect1_dropShadow_1_156" result="shape"/>
</filter>
<clipPath id="clip0_1_156">
<rect width="16" height="16" fill="white" transform="translate(40 38)"/>
</clipPath>
</defs>
</svg>
