<svg width="45" height="52" viewBox="0 0 45 52" fill="none" xmlns="http://www.w3.org/2000/svg">
<g opacity="0.1">
<path d="M44.5869 44.9249C44.5869 47.4609 34.8425 49.5167 22.8222 49.5167C10.8019 49.5167 1.0575 47.4609 1.0575 44.9249C1.0575 42.3889 10.8019 40.333 22.8222 40.333C34.8425 40.333 44.5869 42.3889 44.5869 44.9249Z" fill="#31353A"/>
<path d="M22.8222 51.3207L8.0533 48.2868H37.5911L22.8222 51.3207Z" fill="#31353A"/>
</g>
<path d="M41 21.3134C41 33.0845 31.8218 42.6269 20.5 42.6269C9.17816 42.6269 0 33.0845 0 21.3134C0 9.54235 9.17816 0 20.5 0C31.8218 0 41 9.54235 41 21.3134Z" fill="#C79791"/>
<path d="M20.5 51L6.58929 36.9179H34.4107L20.5 51Z" fill="#C79791"/>
<path fill-rule="evenodd" clip-rule="evenodd" d="M21.8662 7.37012H20.6203V8.67756H21.8662V7.37012ZM18.7591 27.6381L17.5132 28.9456V35.938H18.7591V27.6381ZM23.112 35.938H21.8662V27.5746L19.3795 26.0607L16.8928 28.6703V35.9327H15.647V26.2883L20.6203 21.0639V9.32864H24.3529V10.6361H23.112V35.938Z" fill="white"/>
</svg>
