<svg width="78" height="93" viewBox="32 20 78 93" fill="none" xmlns="http://www.w3.org/2000/svg">
<g opacity="0.1">
<path d="M70.9412 62.7982C70.9412 65.4482 60.6701 67.5965 48 67.5965C35.33 67.5965 25.0588 65.4482 25.0588 62.7982C25.0588 60.1482 35.33 58 48 58C60.6701 58 70.9412 60.1482 70.9412 62.7982Z" fill="#31353A"/>
<path d="M48 69.4815L32.4328 66.3112H63.5672L48 69.4815Z" fill="#31353A"/>
</g>
<g opacity="0.3" filter="url(#filter0_d_1_160)">
<ellipse cx="48.1765" cy="45.9259" rx="22.9412" ry="22.963" fill="#7A1B1B"/>
</g>
<circle cx="48" cy="46" r="18" fill="#C79791"/>
<g clip-path="url(#clip0_1_160)">
<path d="M55.9771 45.1927C55.8574 45.0932 55.6998 45.0519 55.5466 45.0801L53.7305 45.4146V44.2728C53.7305 43.9832 53.4958 43.7486 53.2062 43.7486H52.8881C53.5583 43.1444 53.9805 42.27 53.9805 41.2987C53.9805 39.4798 52.5008 38 50.6819 38C49.5187 38 48.4949 38.6057 47.9075 39.5178C47.3199 38.6057 46.2962 38 45.133 38C43.3141 38 41.8343 39.4798 41.8343 41.2987C41.8343 42.27 42.2565 43.1443 42.9267 43.7486H42.6085C42.319 43.7486 42.0843 43.9832 42.0843 44.2728V50.5406C42.0843 50.8302 42.319 51.0649 42.6085 51.0649H46.6977L44.6575 53.1051C44.4528 53.3098 44.4528 53.6418 44.6575 53.8465C44.8623 54.0513 45.1942 54.0512 45.3989 53.8465L47.9075 51.338L50.416 53.8465C50.5183 53.9489 50.6525 54 50.7867 54C50.9208 54 51.055 53.9488 51.1574 53.8465C51.3622 53.6418 51.3622 53.3098 51.1574 53.1051L49.1172 51.0649H53.2064C53.4958 51.0649 53.7306 50.8302 53.7306 50.5406V49.3988L55.5466 49.7335C55.5783 49.7393 55.6101 49.7422 55.6417 49.7422C55.7632 49.7422 55.8822 49.6998 55.9771 49.6207C56.0968 49.5211 56.1659 49.3735 56.1659 49.2179V45.5956C56.1659 45.44 56.0967 45.2924 55.9771 45.1927ZM50.6819 39.0485C51.9227 39.0485 52.9321 40.058 52.9321 41.2988C52.9321 42.5395 51.9227 43.549 50.6819 43.549C49.4411 43.549 48.4317 42.5396 48.4317 41.2988C48.4317 40.058 49.4411 39.0485 50.6819 39.0485ZM47.9074 43.0797C48.0668 43.3271 48.2578 43.5523 48.4756 43.7486H47.3393C47.5571 43.5523 47.748 43.3271 47.9074 43.0797ZM42.8828 41.2988C42.8828 40.058 43.8923 39.0485 45.1331 39.0485C46.3738 39.0485 47.3832 40.058 47.3832 41.2988C47.3832 42.5395 46.3738 43.549 45.1331 43.549C43.8922 43.549 42.8828 42.5396 42.8828 41.2988ZM52.6821 50.0165H43.1328V44.7971H52.6821V50.0165ZM55.1174 48.5883L53.7306 48.3328V46.4808L55.1174 46.2253V48.5883Z" fill="white"/>
</g>
<defs>
<filter id="filter0_d_1_160" x="21.2353" y="22.9629" width="53.8823" height="53.9259" filterUnits="userSpaceOnUse" color-interpolation-filters="sRGB">
<feFlood flood-opacity="0" result="BackgroundImageFix"/>
<feColorMatrix in="SourceAlpha" type="matrix" values="0 0 0 0 0 0 0 0 0 0 0 0 0 0 0 0 0 0 127 0" result="hardAlpha"/>
<feOffset dy="4"/>
<feGaussianBlur stdDeviation="2"/>
<feColorMatrix type="matrix" values="0 0 0 0 0 0 0 0 0 0 0 0 0 0 0 0 0 0 0.25 0"/>
<feBlend mode="normal" in2="BackgroundImageFix" result="effect1_dropShadow_1_160"/>
<feBlend mode="normal" in="SourceGraphic" in2="effect1_dropShadow_1_160" result="shape"/>
</filter>
<clipPath id="clip0_1_160">
<rect width="16" height="16" fill="white" transform="translate(41 38)"/>
</clipPath>
</defs>
</svg>
